<svg width="1728" height="351" viewBox="0 0 1728 351" fill="none" xmlns="http://www.w3.org/2000/svg">
<path d="M1728 351H0V0H1728V351ZM154.684 40.3398C140.11 40.3398 126.681 42.0863 114.396 45.5791C102.11 48.9515 91.391 53.8896 82.2373 60.3936C73.2041 66.777 66.1582 74.5456 61.0996 83.6992C56.041 92.7324 53.5117 102.91 53.5117 114.231C53.5117 126.035 55.9808 136.393 60.9189 145.306C65.8571 154.098 72.5417 161.806 80.9727 168.431C89.4036 174.935 98.9788 180.656 109.698 185.594C120.418 190.411 131.559 194.747 143.121 198.602C152.997 201.854 160.947 204.985 166.969 207.996C173.111 210.887 177.809 213.777 181.061 216.668C184.312 219.559 186.541 222.69 187.745 226.062C188.95 229.314 189.552 232.988 189.552 237.083C189.552 241.78 188.408 246.116 186.119 250.091C183.831 253.945 180.217 257.077 175.279 259.485C170.341 261.774 163.837 262.918 155.768 262.918C148.3 262.918 141.676 262.256 135.895 260.931C130.113 259.485 125.235 257.197 121.261 254.065C117.286 250.813 114.275 246.538 112.228 241.238C110.18 235.939 109.156 229.435 109.156 221.727H45.5625C45.5625 237.264 48.694 250.693 54.957 262.015C61.3405 273.216 69.8317 282.43 80.4307 289.656C91.0296 296.762 102.833 302.062 115.841 305.555C128.969 308.927 142.278 310.613 155.768 310.613C170.462 310.613 183.771 308.987 195.694 305.735C207.618 302.483 217.856 297.726 226.407 291.463C234.959 285.079 241.523 277.311 246.1 268.157C250.676 259.004 252.965 248.525 252.965 236.722C252.965 225.641 250.978 215.704 247.003 206.912C243.149 198.12 237.428 190.291 229.84 183.426C222.372 176.44 213.159 170.237 202.198 164.817C191.358 159.277 178.953 154.279 164.981 149.822C157.514 147.413 150.769 144.944 144.747 142.415C138.845 139.886 133.787 137.236 129.571 134.466C125.476 131.696 122.285 128.745 119.996 125.613C117.828 122.361 116.744 118.748 116.744 114.773C116.744 109.956 118.129 105.56 120.899 101.585C123.67 97.4899 127.765 94.238 133.185 91.8291C138.604 89.4202 145.289 88.2158 153.238 88.2158C161.428 88.2158 168.233 89.6611 173.653 92.5518C179.073 95.4424 183.108 99.417 185.758 104.476C188.528 109.534 189.913 115.376 189.913 122H252.965C252.965 105.379 248.749 90.986 240.318 78.8213C232.008 66.5361 220.445 57.0814 205.631 50.457C190.937 43.7122 173.954 40.3398 154.684 40.3398ZM1374.89 40.3398C1360.32 40.3398 1346.89 42.0863 1334.6 45.5791C1322.32 48.9515 1311.6 53.8896 1302.44 60.3936C1293.41 66.777 1286.36 74.5456 1281.3 83.6992C1276.25 92.7324 1273.72 102.91 1273.72 114.231C1273.72 126.035 1276.19 136.393 1281.12 145.306C1286.06 154.098 1292.75 161.806 1301.18 168.431C1309.61 174.935 1319.18 180.656 1329.9 185.594C1340.62 190.411 1351.76 194.747 1363.33 198.602C1373.2 201.854 1381.15 204.985 1387.17 207.996C1393.32 210.887 1398.01 213.777 1401.27 216.668C1404.52 219.559 1406.75 222.69 1407.95 226.062C1409.15 229.314 1409.76 232.988 1409.76 237.083C1409.76 241.78 1408.61 246.116 1406.32 250.091C1404.04 253.945 1400.42 257.077 1395.48 259.485C1390.55 261.774 1384.04 262.918 1375.97 262.918C1368.51 262.918 1361.88 262.256 1356.1 260.931C1350.32 259.485 1345.44 257.197 1341.47 254.065C1337.49 250.813 1334.48 246.538 1332.43 241.238C1330.39 235.939 1329.36 229.435 1329.36 221.727H1265.77C1265.77 237.264 1268.9 250.693 1275.16 262.015C1281.55 273.216 1290.04 282.43 1300.64 289.656C1311.23 296.762 1323.04 302.062 1336.05 305.555C1349.17 308.927 1362.48 310.613 1375.97 310.613C1390.67 310.613 1403.98 308.987 1415.9 305.735C1427.82 302.483 1438.06 297.726 1446.61 291.463C1455.16 285.079 1461.73 277.311 1466.3 268.157C1470.88 259.004 1473.17 248.525 1473.17 236.722C1473.17 225.641 1471.18 215.704 1467.21 206.912C1463.35 198.12 1457.63 190.291 1450.04 183.426C1442.58 176.44 1433.36 170.237 1422.4 164.817C1411.56 159.277 1399.16 154.279 1385.19 149.822C1377.72 147.413 1370.97 144.944 1364.95 142.415C1359.05 139.886 1353.99 137.236 1349.78 134.466C1345.68 131.696 1342.49 128.745 1340.2 125.613C1338.03 122.361 1336.95 118.748 1336.95 114.773C1336.95 109.956 1338.33 105.56 1341.1 101.585C1343.87 97.4899 1347.97 94.238 1353.39 91.8291C1358.81 89.4202 1365.49 88.2158 1373.44 88.2158C1381.63 88.2158 1388.44 89.6611 1393.86 92.5518C1399.28 95.4424 1403.31 99.417 1405.96 104.476C1408.73 109.534 1410.12 115.376 1410.12 122H1473.17C1473.17 105.379 1468.95 90.986 1460.52 78.8213C1452.21 66.5361 1440.65 57.0814 1425.84 50.457C1411.14 43.7122 1394.16 40.3398 1374.89 40.3398ZM264.889 43.9531L349.62 212.513V307H414.117V212.513L498.668 43.9531H430.377L381.778 158.133L333.36 43.9531H264.889ZM517.999 43.9531V307H581.412V143.318L674.454 307H737.687V43.9531H674.454V207.635L581.412 43.9531H517.999ZM856.925 43.9531L760.27 307H828.38L843.55 257.859H930.419L945.631 307H1013.92L916.725 43.9531H856.925ZM1033.25 43.9531V307H1096.67V217.752H1138.22C1159.3 217.752 1177.42 214.259 1192.6 207.273C1207.89 200.167 1219.64 190.291 1227.83 177.645C1236.02 164.998 1240.11 150.184 1240.11 133.201C1240.11 115.978 1236.02 100.682 1227.83 87.3125C1219.64 73.8229 1207.89 63.224 1192.6 55.5156C1177.42 47.8073 1159.3 43.9531 1138.22 43.9531H1033.25ZM1505.87 43.9531V307H1686.9V258.221H1569.28V195.53H1668.83V148.377H1569.28V92.9131H1687.44V43.9531H1505.87ZM915.263 208.899H858.663L886.923 117.354L915.263 208.899ZM1138.22 92.9131C1147.13 92.9131 1154.36 94.8402 1159.9 98.6943C1165.44 102.428 1169.47 107.366 1172 113.509C1174.65 119.651 1175.98 126.336 1175.98 133.562C1175.98 140.307 1174.65 146.39 1172 151.81C1169.47 157.109 1165.44 161.264 1159.9 164.275C1154.36 167.286 1147.13 168.792 1138.22 168.792H1096.67V92.9131H1138.22Z" fill="black"/>
</svg>
