<?xml version="1.0" standalone="no"?>
<!DOCTYPE svg PUBLIC "-//W3C//DTD SVG 20010904//EN"
 "http://www.w3.org/TR/2001/REC-SVG-20010904/DTD/svg10.dtd">
<svg version="1.0" xmlns="http://www.w3.org/2000/svg"
 width="297.000000pt" height="223.000000pt" viewBox="0 0 297.000000 223.000000"
 preserveAspectRatio="xMidYMid meet">
<g transform="translate(0.000000,223.000000) scale(0.050000,-0.050000)"
fill="#000000" stroke="none">
<path d="M1197 4405 c-4 -8 -57 -60 -117 -115 -61 -55 -223 -204 -360 -332
-138 -127 -351 -324 -474 -437 -176 -162 -221 -213 -207 -239 9 -17 185 -311
389 -652 205 -341 382 -637 393 -657 39 -67 40 -22 10 445 -17 255 -31 476
-31 490 0 15 45 45 100 68 l100 42 31 -44 c44 -63 282 -459 462 -769 179 -308
170 -302 212 -140 17 69 49 188 70 265 l38 140 142 90 c79 49 276 174 439 276
l296 186 280 -6 280 -6 200 -126 c110 -69 303 -191 429 -270 201 -127 231
-153 246 -214 15 -64 104 -368 127 -440 7 -21 20 -12 46 30 19 33 156 263 302
510 334 563 304 529 427 475 l98 -42 -13 -162 c-29 -375 -52 -818 -43 -827 5
-5 26 20 45 56 20 35 113 192 208 347 94 156 262 436 374 623 l203 340 -87 80
c-420 387 -561 518 -680 630 -77 72 -154 144 -172 160 -18 17 -83 77 -145 135
-61 58 -118 105 -126 105 -12 0 -292 -208 -805 -599 l-170 -130 -382 97 -382
97 -344 -93 c-189 -50 -360 -92 -380 -91 -20 0 -247 162 -506 359 -445 340
-508 381 -523 345z"/>
<path d="M2470 2606 c-33 -18 -64 -38 -70 -46 -5 -7 -102 -74 -215 -148 -224
-148 -207 -121 -276 -428 -18 -81 -29 -151 -24 -155 5 -5 161 43 347 107 l338
116 75 149 c123 246 124 254 52 316 -133 113 -160 123 -227 89z"/>
<path d="M3275 2554 c-115 -102 -116 -116 -9 -333 l84 -170 338 -116 c186 -64
341 -112 345 -108 4 4 -6 74 -23 155 -63 301 -50 280 -275 431 -113 75 -209
142 -215 147 -21 22 -119 80 -134 79 -9 0 -59 -38 -111 -85z"/>
<path d="M2775 1860 c-62 -66 -126 -120 -143 -120 -23 0 -32 -20 -32 -70 l0
-70 360 0 360 0 0 59 c0 41 -14 67 -44 83 -24 13 -88 72 -142 131 -141 154
-206 152 -359 -13z"/>
<path d="M685 1355 c-199 -200 -200 -159 6 -368 l171 -174 169 168 c205 204
204 175 4 374 -199 198 -153 198 -350 0z"/>
<path d="M4885 1357 c-201 -199 -201 -172 5 -377 l171 -170 169 170 c205 206
205 176 5 375 -199 198 -152 198 -350 2z"/>
<path d="M2424 1341 l166 -160 367 0 366 -1 124 116 c68 64 145 136 172 160
65 59 34 55 -74 -8 l-88 -52 -127 35 c-123 33 -130 33 -248 -7 l-122 -41 -122
41 c-118 40 -127 40 -243 8 -120 -34 -120 -33 -217 17 -54 28 -102 51 -109 51
-6 0 64 -72 155 -159z"/>
<path d="M2580 1032 c0 -5 43 -50 95 -100 l95 -92 190 0 190 0 95 92 c52 50
95 95 95 100 0 4 -171 8 -380 8 -209 0 -380 -4 -380 -8z"/>
<path d="M2060 851 c0 -25 342 -691 356 -692 8 0 104 -13 214 -29 251 -37 406
-36 660 0 110 16 207 29 215 30 14 0 355 665 355 691 0 7 -87 -79 -192 -189
-228 -239 -213 -236 -357 -72 l-114 130 -237 0 -236 0 -126 -143 -127 -142
-205 213 c-113 118 -206 209 -206 203z"/>
</g>
</svg>
